<svg xmlns="http://www.w3.org/2000/svg" viewBox="0 0 209.19 89.41"><path d="M46.41 12.44c0-1.91.69-3.55 2.07-4.94 1.38-1.38 3.03-2.07 4.94-2.07 1.98 0 3.64.69 4.99 2.07s2.02 3.03 2.02 4.94c0 1.98-.68 3.64-2.02 4.99-1.35 1.35-3.01 2.02-4.99 2.02-1.91 0-3.55-.67-4.94-2.02-1.38-1.35-2.07-3.01-2.07-4.99M40.09 23.7h23.4V0L0 6.62V23.7h19.95v23.4H40.1V23.7zm3.36 28.14H63.5V26.96H43.45v24.88zm65.57-33.57h2.07V4.34c-6.25-.2-11.87 1.09-16.84 3.85a28.903 28.903 0 00-8.15 6.74V9.78H66.85V47.1H86.1v-6.12c0-4.28.99-8.16 2.96-11.65 1.98-3.49 4.71-6.2 8.2-8.15 3.49-1.94 7.41-2.91 11.76-2.91m27.05 22.61c0 .72-.23 1.32-.69 1.78-.46.46-1.05.69-1.78.69h-24.79c-.73 0-1.32-.23-1.78-.69-.46-.46-.69-1.05-.69-1.78 0-.72.23-1.32.69-1.78.46-.46 1.05-.69 1.78-.69h24.79c.72 0 1.32.23 1.78.69.46.47.69 1.06.69 1.78m14.42 9.93c1.71-2.93 2.57-6.24 2.57-9.92 0-3.69-.86-6.99-2.57-9.92a18.685 18.685 0 00-6.96-6.91c-2.93-1.68-6.27-2.52-10.02-2.52h-24.49c-3.75 0-7.11.84-10.07 2.52-2.96 1.68-5.3 3.98-7.01 6.91s-2.57 6.24-2.57 9.92c0 3.69.85 7 2.57 9.92 1.71 2.93 4.05 5.23 7.01 6.91 2.96 1.68 6.32 2.52 10.07 2.52h24.49c3.75 0 7.09-.84 10.02-2.52 2.93-1.68 5.25-3.98 6.96-6.91m25.28-3.71V6.62L155.63 0v47.1h20.14zm27.49 27.58l2.33 8.66h-4.66l2.33-8.66zm5.93 14.47l-4.61-16.8-2.59.24-4.61 16.56h1.99l1.08-4.01h5.62l1.15 4.25 1.97-.24zm-16.7 0v-16.8l-1.99.24v16.8l1.99-.24zm-15.36-9.67V74.2h3.24c1.22 0 1.82.5 1.82 1.44v2.09c0 1.32-.58 1.75-1.82 1.75h-3.24zm6.98 2.95c.02-1.13-.36-1.99-1.39-2.28.91-.48 1.44-1.3 1.44-2.59v-2.11c0-2.04-1.32-3.1-3.43-3.1h-5.59v17.04l1.99-.24v-7.94h3.6c1.18 0 1.44.41 1.42 1.68l-.15 4.03c-.07 1.46.29 2.42 1.85 2.42.55 0 .96-.07 1.44-.19l.24-1.51c-1.01.14-1.61.14-1.56-1.13l.14-4.08zM160.4 72.35v1.85h3.91v15.19l1.97-.24V74.2h3.91v-1.85h-9.79zm-8.95 17.06c3.1 0 4.85-1.08 4.85-3.7v-2.26c0-1.99-.65-2.93-2.86-3.38l-2.86-.65c-1.3-.29-1.61-.84-1.61-1.97v-1.44c0-1.44.48-2.16 2.62-2.16 1.85 0 2.78.48 2.78 1.9v.96h1.75v-1.1c0-2.5-1.25-3.53-4.51-3.53-3.14 0-4.61.98-4.61 3.82v2.02c0 1.73.74 2.74 2.81 3.19l3.05.67c1.22.26 1.46.98 1.46 1.87v1.82c0 1.34-.67 2.16-2.83 2.16-1.99 0-2.93-.67-2.93-2.14v-.86h-1.73v1.1c.01 2.2 1.21 3.68 4.62 3.68m-15 0c2.78 0 5.09-1.03 5.09-3.86v-13.2l-1.99.24v12.58c0 1.63-1.1 2.4-3.1 2.4-1.97 0-2.98-.77-2.98-2.4V72.35l-1.99.24v12.96c0 2.78 2.21 3.86 4.97 3.86m-15.41-14.73l2.33 8.66h-4.66l2.33-8.66zm5.93 14.47l-4.61-16.8-2.59.24-4.61 16.56h1.99l1.08-4.01h5.62l1.15 4.25 1.97-.24z" fill="#b51f1f"/></svg>